<svg width="182" height="177" viewBox="0 0 182 177" fill="none" xmlns="http://www.w3.org/2000/svg">
<g id="Group 60">
<path id="Vector" fill-rule="evenodd" clip-rule="evenodd" d="M82.9843 94.1729C77.5771 90.2133 71.1561 84.82 71.1561 84.82V64.3394L100 89.2746C98.6651 96.6476 90.2333 99.4808 82.9843 94.1729ZM35.4856 16.005C33.1369 -3.11023 63.8733 -6.93329 63.8733 14.6226C63.8733 36.4857 37.7668 34.523 35.4856 16.005ZM62.5215 43.9782L63.6536 104.413L94.4914 172.682C90.7909 177.017 81.1087 179.185 76.3605 170.6C65.2589 150.546 33.1707 92.0053 33.1707 92.0053L29.2505 64.0663L18.284 67.7187L12.8599 98.1154C12.8599 98.1154 -0.776278 99.8221 0.0347986 88.6601C0.896568 77.1568 2.29905 55.2596 2.29905 55.2596L31.9709 37.2878C52.2816 35.7006 62.606 44.0465 62.606 44.0465L62.5215 43.9782ZM28.7266 103.355L41.3659 126.174L16.4084 177C10.2577 177 1.69075 171.095 5.76303 161.179C9.66633 151.723 28.828 103.423 28.828 103.423L28.7266 103.355Z" fill="url(#paint0_linear_379_97)"/>
<path id="Vector 15 (Stroke)" fill-rule="evenodd" clip-rule="evenodd" d="M152.456 110C154.665 110 156.456 108.209 156.456 106L156.456 46.6569L175.083 65.2843C176.645 66.8464 179.178 66.8464 180.74 65.2843C182.302 63.7222 182.302 61.1895 180.74 59.6274L155.284 34.1716C153.722 32.6095 151.19 32.6095 149.627 34.1716L124.172 59.6274C122.609 61.1895 122.609 63.7222 124.172 65.2843C125.734 66.8464 128.266 66.8464 129.828 65.2843L148.456 46.6569L148.456 106C148.456 108.209 150.247 110 152.456 110Z" fill="url(#paint1_linear_379_97)"/>
</g>
<defs>
<linearGradient id="paint0_linear_379_97" x1="50" y1="0" x2="50" y2="177" gradientUnits="userSpaceOnUse">
<stop stop-color="white"/>
<stop offset="1" stop-color="#E00501"/>
</linearGradient>
<linearGradient id="paint1_linear_379_97" x1="152.456" y1="175.5" x2="152.456" y2="-7" gradientUnits="userSpaceOnUse">
<stop stop-color="#E4201D"/>
<stop offset="0.415" stop-color="#EF7D7B"/>
<stop offset="1" stop-color="white"/>
</linearGradient>
</defs>
</svg>
