<svg width="88" height="139" viewBox="0 0 88 139" fill="none" xmlns="http://www.w3.org/2000/svg">
<g id="Group 58">
<circle id="Ellipse 13" cx="38.6446" cy="15.7613" r="15.4825" fill="#E00501"/>
<path id="Union" d="M16.9828 43.027C18.8976 38.394 23.4165 35.3721 28.4296 35.3721L50.734 35.63H87.9995C87.9995 47.0616 83.7323 56.3288 72.3007 56.3288H47.1021V56.2735H42.2149L32.9363 78.7231H52.5309C56.1009 78.7231 59.4175 80.568 61.3003 83.6011C63.1832 86.6342 63.365 90.425 61.781 93.6244L42.2988 132.976C39.7696 138.085 33.5779 140.176 28.4691 137.646C23.3604 135.117 21.2694 128.925 23.7986 123.817L35.9034 99.3665H12.7924C8.77373 99.3665 5.29145 97.0699 3.5865 93.7175C0.723268 89.9123 -0.242063 84.7027 1.80362 79.7532L16.9828 43.027Z" fill="#E00501"/>
</g>
</svg>
